<svg xmlns:xlink="http://www.w3.org/1999/xlink" xmlns="http://www.w3.org/2000/svg" width="165" height="159" viewBox="0 0 165 159" fill="none">
<path d="M55.7144 0.915011C49.0726 25.7814 58.9112 53.5879 78.1631 70.2975C83.3775 74.821 89.2863 78.5312 95.7495 81.1418C100.325 82.9892 105.309 84.3775 110.324 83.783C114.076 83.3325 117.798 81.5978 120.27 78.7534C121.115 77.7796 121.81 76.6744 122.302 75.4504C123.332 72.8811 123.269 70.1253 122.437 67.5873C121.605 65.0459 120.012 62.7072 117.946 60.9144C116.413 59.5842 114.617 58.553 112.669 57.9767C105.527 55.878 97.7659 58.8747 92.3968 63.8299C91.5911 64.5742 90.8348 65.3565 90.1276 66.1716C85.1116 71.9536 82.5486 79.411 82.0847 87.1364C81.6201 94.8643 83.2485 102.871 86.6519 109.803C90.6304 117.905 96.5169 124.733 103.322 130.637C108.949 135.518 115.206 139.77 121.545 143.589C121.835 143.762 122.21 143.669 122.384 143.381C122.557 143.091 122.464 142.716 122.176 142.544C115.874 138.748 109.675 134.534 104.121 129.715C97.4037 123.888 91.635 117.182 87.7476 109.265C84.4387 102.53 82.85 94.7159 83.3027 87.2104C83.7551 79.7014 86.2428 72.5116 91.0501 66.972C91.7285 66.19 92.4534 65.4402 93.2258 64.7269C98.3555 59.9825 105.752 57.1934 112.323 59.148C114.085 59.6692 115.734 60.6103 117.146 61.8365C119.051 63.4876 120.522 65.654 121.276 67.9654C122.032 70.2811 122.077 72.7267 121.168 74.9956C120.732 76.086 120.111 77.0733 119.348 77.9531C117.123 80.5237 113.66 82.1579 110.179 82.5711C105.488 83.1321 100.696 81.8256 96.2057 80.0103C89.876 77.4525 84.0825 73.8164 78.9631 69.3753C60.0473 52.9735 50.3727 25.5726 56.8942 1.23064C56.9809 0.905099 56.7875 0.570792 56.4619 0.483887C56.1371 0.396059 55.8011 0.589472 55.7144 0.915011" fill="white"></path>
<path d="M113.161 119.932L121.048 142.587L97.752 146.643C97.4202 146.701 97.1978 147.017 97.2552 147.349C97.3135 147.681 97.6297 147.904 97.9623 147.847L121.965 143.668C122.142 143.636 122.297 143.53 122.387 143.375C122.477 143.221 122.496 143.034 122.436 142.866L114.315 119.531C114.204 119.213 113.856 119.044 113.538 119.155C113.219 119.265 113.051 119.614 113.161 119.932" fill="white"></path>
</svg>