<svg xmlns:xlink="http://www.w3.org/1999/xlink" xmlns="http://www.w3.org/2000/svg" width="548" height="312" viewBox="0 0 548 312" fill="none">
<mask id="mask0_1404_651" style="mask-type:alpha" maskUnits="userSpaceOnUse" x="0" y="0" width="505" height="312">
<rect width="504.978" height="312" transform="matrix(-1 0 0 1 504.978 0)" fill="#D9D9D9"></rect>
</mask>
<g mask="url(#mask0_1404_651)">
<path opacity="0.3" d="M267.345 295.525H553.381C554.168 295.525 554.807 295.785 554.807 296.103C554.807 296.422 554.168 296.681 553.381 296.681H267.345C266.558 296.681 265.918 296.422 265.918 296.103C265.918 295.785 266.558 295.525 267.345 295.525Z" fill="#171938"></path>
<path d="M275.4 262C275.4 262 282.849 276.882 286.14 281.352L301.395 288.099C307.122 291.116 307.057 295.753 307.057 295.753L265.346 296.248L253.064 261.769L275.4 262" fill="#171938"></path>
<path d="M138.446 231.631L206.244 167.661C206.244 167.661 228.842 146.338 242.818 154.185C261.028 164.41 280.201 271.002 280.201 271.002L243.047 282.021L224.716 217.236C214.887 226.298 207.371 231.876 194.278 242.046C158.25 270.031 138.446 231.631 138.446 231.631" fill="#346AF8"></path>
<path d="M138.446 231.631L137.918 231.07L205.715 167.102C205.735 167.083 209.79 163.256 215.556 159.415C221.327 155.582 228.789 151.696 235.793 151.682C238.371 151.68 240.893 152.221 243.194 153.514C245.688 154.927 248.012 157.806 250.318 161.754C254.339 168.662 258.236 178.904 261.855 190.416C272.7 224.938 280.956 270.849 280.959 270.864C281.03 271.251 280.797 271.627 280.421 271.74L243.266 282.759C243.069 282.817 242.855 282.794 242.674 282.696C242.494 282.596 242.362 282.429 242.305 282.23L223.974 217.445L224.716 217.236L225.238 217.803C215.379 226.893 207.834 232.491 194.75 242.653C185.032 250.206 176.39 253.03 168.952 253.029C158.738 253.027 150.925 247.727 145.703 242.489C140.476 237.244 137.785 232.027 137.762 231.984C137.605 231.677 137.668 231.307 137.918 231.07L138.446 231.631L139.132 231.278C139.132 231.278 139.167 231.347 139.248 231.492C139.842 232.582 142.748 237.62 147.771 242.35C152.8 247.085 159.901 251.49 168.952 251.488C175.991 251.487 184.279 248.833 193.805 241.438C206.908 231.261 214.397 225.702 224.193 216.669C224.39 216.489 224.668 216.422 224.925 216.495C225.182 216.567 225.384 216.769 225.457 217.026L243.576 281.061L279.982 270.262L280.201 271.002L279.443 271.137C279.443 271.132 279.144 269.476 278.584 266.546C276.628 256.286 271.482 230.48 264.843 206.147C261.522 193.983 257.828 182.184 253.983 172.899C252.062 168.259 250.102 164.247 248.149 161.144C246.2 158.039 244.24 155.859 242.44 154.857C240.399 153.713 238.16 153.223 235.793 153.221C229.369 153.207 222.056 156.925 216.409 160.698C213.585 162.58 211.169 164.465 209.464 165.878C208.612 166.584 207.937 167.173 207.475 167.584C207.245 167.789 207.068 167.949 206.949 168.059L206.774 168.222L138.976 232.192L138.446 231.631L139.132 231.278L138.446 231.631" fill="#171938"></path>
<path d="M234.009 206.554L226.298 216.492C226.03 216.838 225.531 216.9 225.185 216.632C224.839 216.364 224.776 215.865 225.044 215.52L232.757 205.58C233.025 205.235 233.524 205.172 233.869 205.44C234.216 205.71 234.279 206.207 234.009 206.554Z" fill="#171938"></path>
<path d="M227.273 207.085L226.461 216.077C226.423 216.513 226.036 216.835 225.6 216.795C225.164 216.757 224.842 216.37 224.88 215.934L225.694 206.942C225.732 206.506 226.119 206.184 226.555 206.223C226.991 206.263 227.313 206.648 227.273 207.085Z" fill="#171938"></path>
<path d="M153.635 293.465C153.635 293.465 125.928 292.905 120.38 293.029L107.197 294.995C96.207 297.388 91.7265 295.907 89.0379 294.251L120.142 267.453L164.807 268.159L153.635 293.465" fill="#171938"></path>
<path d="M194.794 199.793C194.794 199.793 271.882 232.364 271.915 274.057C271.925 289.288 256.076 295.146 250.035 295.146L141.85 295.601L140.964 260.854L206.373 259.224C206.373 259.224 134.004 265.894 126.922 207.464L194.794 199.793" fill="#346AF8"></path>
<path d="M194.794 199.793L195.093 199.083C195.123 199.097 214.43 207.252 233.781 220.658C243.457 227.361 253.148 235.378 260.45 244.379C267.745 253.375 272.674 263.387 272.685 274.056V274.053V274.072C272.693 281.967 268.542 287.492 263.687 290.944C261.257 292.678 258.646 293.915 256.247 294.724C253.845 295.531 251.665 295.915 250.034 295.916H250.038L141.854 296.371C141.435 296.373 141.092 296.04 141.081 295.621L140.194 260.872C140.189 260.668 140.264 260.472 140.406 260.322C140.548 260.173 140.739 260.088 140.945 260.084L206.355 258.453C206.771 258.443 207.119 258.763 207.143 259.179C207.166 259.594 206.858 259.953 206.444 259.991C206.425 259.993 203.902 260.225 199.757 260.225C190.679 260.222 173.82 259.122 158.416 251.996C150.717 248.433 143.377 243.353 137.597 236.137C131.817 228.924 127.612 219.578 126.157 207.557C126.133 207.353 126.19 207.148 126.318 206.987C126.446 206.825 126.63 206.722 126.835 206.699L194.708 199.027L195.093 199.083L194.794 199.793L194.881 200.559L127.008 208.23L126.922 207.464L127.686 207.372C129.114 219.137 133.202 228.181 138.801 235.175C147.196 245.661 159.049 251.548 170.518 254.807C181.983 258.063 193.043 258.685 199.757 258.685C201.8 258.685 203.443 258.626 204.57 258.569C205.134 258.541 205.57 258.512 205.863 258.492C206.156 258.47 206.302 258.456 206.302 258.456L206.373 259.224L206.393 259.994L141.754 261.604L142.602 294.828L250.031 294.376H250.034C251.424 294.379 253.489 294.031 255.755 293.265C259.16 292.119 263.037 290.04 266.026 286.897C269.016 283.749 271.14 279.575 271.144 274.072V274.059V274.056C271.14 263.88 266.419 254.186 259.253 245.35C248.511 232.098 232.308 220.858 218.798 212.962C212.043 209.013 205.962 205.896 201.572 203.767C199.378 202.702 197.605 201.885 196.383 201.335C195.161 200.784 194.495 200.503 194.494 200.502L194.794 199.793L194.881 200.559L194.794 199.793" fill="#171938"></path>
<path d="M173.564 62.7381C173.564 62.7381 165.163 65.5206 163.844 73.5941C162.525 81.6661 158.778 140.239 114.294 136.065C74.6027 132.341 77.1541 103.109 87.7837 93.556C99.6243 82.9141 118.867 93.4512 124.19 75.5817C128.689 60.4824 153.009 44.4033 173.564 62.7381Z" fill="#171938"></path>
<path d="M173.564 62.7378L173.814 63.4913L173.74 63.5174C173.329 63.6638 171.303 64.4511 169.27 66.0874C167.232 67.7298 165.206 70.1811 164.627 73.7218C164.317 75.6092 163.852 80.5503 162.705 86.818C160.983 96.2351 157.73 108.723 151.043 118.933C147.698 124.038 143.486 128.575 138.166 131.837C132.847 135.099 126.424 137.072 118.733 137.069C117.273 137.069 115.77 137 114.22 136.854C101.586 135.669 93.0884 131.914 87.7359 126.931C82.3818 121.95 80.2341 115.761 80.2402 109.92C80.2479 103.073 83.1322 96.6804 87.2521 92.9656C90.3429 90.1861 93.9174 88.7995 97.5474 87.9967C102.994 86.795 108.613 86.8427 113.241 85.55C115.559 84.9075 117.614 83.9508 119.333 82.3792C121.051 80.8046 122.463 78.5982 123.43 75.355C125.028 70.007 128.96 64.6422 134.277 60.5762C139.596 56.5148 146.326 53.7569 153.536 53.7553C160.277 53.7507 167.418 56.1866 174.093 62.1446L175.117 63.0583L173.814 63.4913L173.564 62.7378L173.037 63.3295C166.614 57.6056 159.895 55.3454 153.536 55.3423C146.737 55.3408 140.326 57.9538 135.24 61.8365C130.156 65.7161 126.419 70.8668 124.951 75.8079C123.586 80.4194 121.242 83.3221 118.338 85.1063C113.979 87.7826 108.557 88.0353 103.197 88.6916C97.8216 89.3356 92.5476 90.3356 88.3137 94.1458C84.582 97.4877 81.8179 103.524 81.8256 109.92C81.8318 115.382 83.7993 121.09 88.8175 125.77C93.8388 130.446 101.971 134.111 114.368 135.274C115.871 135.415 117.326 135.484 118.733 135.484C128.626 135.478 136.184 132.134 142.081 126.982C150.922 119.255 155.963 107.359 158.87 96.6449C160.328 91.2878 161.255 86.2341 161.876 82.1527C162.5 78.0667 162.815 74.979 163.061 73.466C163.764 69.1673 166.357 66.28 168.722 64.5035C171.093 62.7224 173.264 62.0029 173.315 61.9844L173.564 62.7378L173.037 63.3295L173.564 62.7378" fill="#171938"></path>
<path d="M191.337 133.968L201.735 97.235L187.573 81.1065L161.98 129.037L191.337 133.968" fill="#FEF3DE"></path>
<path d="M191.337 133.968L190.594 133.759L200.879 97.4294L187.729 82.4503L163.165 128.455L191.463 133.208L191.337 133.968L190.594 133.759L191.337 133.968L191.209 134.728L161.852 129.797C161.608 129.756 161.397 129.6 161.288 129.378C161.179 129.156 161.183 128.893 161.3 128.674L186.893 80.7431C187.012 80.5213 187.234 80.3703 187.485 80.341C187.736 80.3118 187.986 80.4088 188.152 80.5983L202.313 96.7268C202.486 96.9225 202.547 97.1952 202.477 97.4463L192.078 134.178C191.97 134.557 191.596 134.792 191.209 134.728L191.337 133.968" fill="#171938"></path>
<path d="M197.455 109.13L190.246 99.8852L199.688 101.501L197.455 109.13Z" fill="#171938"></path>
<path d="M197.455 109.13L196.83 109.617L188.36 98.7574L200.7 100.87L197.782 110.838L196.83 109.617L197.455 109.13L196.694 108.906L198.677 102.133L192.132 101.013L198.081 108.641L197.455 109.13L196.694 108.906L197.455 109.13" fill="#171938"></path>
<path d="M159.115 65.6098C156.399 82.0187 175.725 98.8852 193.163 101.773C210.601 104.66 219.033 95.5973 221.75 79.1884C224.467 62.7811 213.049 44.0164 195.611 41.129C178.173 38.2401 161.832 49.2025 159.115 65.6098Z" fill="#FEF3DE"></path>
<path d="M159.115 65.6098L159.877 65.7361C159.71 66.7407 159.63 67.7483 159.63 68.7544C159.621 76.1238 163.975 83.5424 170.411 89.4419C176.836 95.3414 185.305 99.694 193.289 101.011C195.411 101.363 197.389 101.534 199.23 101.534C205.752 101.524 210.524 99.4321 214.044 95.6157C217.56 91.7962 219.816 86.1648 220.99 79.0635C221.25 77.4827 221.378 75.8788 221.378 74.2672C221.38 66.9302 218.731 59.4468 214.161 53.5011C209.59 47.5538 203.122 43.1535 195.485 41.8885C193.647 41.5835 191.822 41.4371 190.026 41.4371C175.15 41.4402 162.228 51.5012 159.877 65.7361L159.115 65.6098L158.356 65.4834C160.85 50.4396 174.466 39.8933 190.026 39.8964C191.905 39.8964 193.816 40.0504 195.737 40.3694C203.812 41.7067 210.613 46.3521 215.383 52.5628C220.153 58.7751 222.918 66.5604 222.919 74.2672C222.919 75.9605 222.785 77.6476 222.509 79.3147C221.303 86.59 218.984 92.5157 215.178 96.6588C211.376 100.806 206.079 103.084 199.23 103.074C197.293 103.074 195.232 102.896 193.036 102.532C184.695 101.147 176.014 96.6711 169.368 90.5775C162.733 84.4854 158.099 76.7462 158.089 68.7544C158.089 67.6667 158.176 66.5743 158.356 65.4834L159.115 65.6098" fill="#171938"></path>
<path d="M159.115 65.6097C161.832 49.2024 178.171 38.24 195.609 41.1274C209.337 43.4015 219.3 55.5163 221.608 68.5726C221.421 68.6434 210.818 69.4354 205.067 58.1972C205.067 58.1972 205.17 76.4257 184.891 74.8696C184.891 74.8696 181.599 97.9714 180.729 97.5354C174.398 94.3615 170.161 90.3725 168.083 88.2417C161.704 81.7059 157.792 73.6062 159.115 65.6097Z" fill="#171938"></path>
<path d="M159.115 65.6099L158.333 65.4804C160.83 50.4228 174.455 39.8702 190.026 39.8733C191.907 39.8733 193.818 40.0274 195.739 40.3448C202.8 41.5142 208.881 45.2151 213.479 50.2733C218.077 55.3347 221.207 61.7565 222.389 68.4356L222.503 69.0827L221.888 69.3154L221.713 69.3616C221.543 69.3862 221.3 69.4016 220.873 69.4032C219.525 69.4032 216.688 69.1782 213.522 67.7053C210.359 66.237 206.882 63.4944 204.359 58.5594L205.066 58.1974L205.86 58.1773V58.2035C205.855 58.447 205.84 62.7456 203.506 67.089C202.338 69.2599 200.574 71.44 197.941 73.0686C195.309 74.6971 191.825 75.7587 187.28 75.7572C186.496 75.7572 185.679 75.7248 184.83 75.6601L184.891 74.8697L185.676 74.9807C185.676 74.9837 184.867 80.6552 183.946 86.3328C183.484 89.1724 182.995 92.012 182.561 94.1567C182.344 95.2291 182.14 96.1258 181.955 96.7821C181.861 97.1134 181.775 97.3784 181.675 97.608L181.476 97.9577L181.259 98.1704C181.154 98.2459 180.98 98.3337 180.754 98.3352L180.381 98.2489L180.375 98.2443H180.373C173.933 95.0149 169.626 90.9612 167.514 88.7965C161.878 83.0172 158.072 75.9914 158.066 68.753C158.066 67.6637 158.152 66.5713 158.333 65.4804L159.115 65.6099L159.9 65.7393C159.733 66.7423 159.653 67.7484 159.653 68.753C159.647 75.412 163.202 82.1066 168.65 87.6887C170.696 89.7856 174.865 93.7084 181.085 96.8253L180.729 97.5356L181.076 96.8222L180.754 97.4832V96.7482L181.076 96.8222L180.754 97.4832V96.7482V97.4631L180.338 96.8792C180.412 96.8253 180.556 96.7482 180.754 96.7482V97.4631L180.338 96.8792L180.667 97.3399L180.216 96.9932L180.338 96.8792L180.667 97.3399L180.216 96.9932L180.356 97.1011L180.2 97.0148L180.216 96.9932L180.356 97.1011L180.2 97.0148C180.216 96.9917 180.287 96.8268 180.356 96.5972C180.632 95.719 181.02 93.864 181.427 91.6407C182.04 88.2973 182.71 84.0726 183.226 80.6876C183.743 77.3026 184.105 74.7634 184.105 74.7573L184.21 74.0208L184.951 74.0778C185.763 74.1409 186.538 74.1702 187.28 74.1702C191.582 74.1687 194.745 73.178 197.106 71.7189C200.643 69.5326 202.433 66.2385 203.349 63.4143C204.261 60.5963 204.275 58.279 204.273 58.2035H204.846L204.273 58.2174V58.2035H204.846L204.273 58.2174L204.185 54.7338L205.772 57.8353C208.14 62.4544 211.305 64.9181 214.192 66.2678C217.078 67.6128 219.699 67.8178 220.873 67.8162C221.079 67.8178 221.24 67.81 221.346 67.8039L221.455 67.7946H221.463L221.5 68.0689L221.449 67.7962L221.463 67.7946L221.5 68.0689L221.449 67.7962L221.579 68.4988L221.327 67.8316L221.449 67.7962L221.579 68.4988L221.327 67.8316L221.608 68.5727L220.825 68.7114C219.7 62.3343 216.696 56.1698 212.303 51.3411C207.911 46.5093 202.147 43.0149 195.48 41.9102C193.643 41.6067 191.821 41.4603 190.026 41.4603C175.161 41.4634 162.248 51.5167 159.9 65.7393L159.115 65.6099" fill="#171938"></path>
<path d="M208.59 88.9306C208.59 88.9306 204.398 89.9398 202.267 85.5579Z" fill="white"></path>
<path d="M208.77 89.6793C208.727 89.6885 208.253 89.801 207.535 89.801C206.755 89.801 205.68 89.6701 204.577 89.1046C203.473 88.5422 202.367 87.5315 201.575 85.8937C201.389 85.5116 201.547 85.0509 201.931 84.8645C202.313 84.6781 202.774 84.8383 202.96 85.2204C203.626 86.5824 204.461 87.3097 205.281 87.7334C206.1 88.1555 206.928 88.2603 207.535 88.2603C207.814 88.2603 208.043 88.2387 208.197 88.2171L208.37 88.1894L208.407 88.1817H208.41C208.823 88.0816 209.239 88.3358 209.339 88.7502C209.439 89.1631 209.183 89.5792 208.77 89.6793Z" fill="#171938"></path>
<path d="M185.445 89.8118C183.478 89.6238 181.475 88.6824 179.905 87.0323C176.763 83.7305 176.54 78.8432 179.405 76.1146C181.354 74.2611 183.77 74.3381 186.106 75.6154" fill="white"></path>
<path d="M185.373 90.579C183.211 90.3726 181.042 89.3449 179.345 87.5623C177.549 85.6733 176.624 83.2959 176.624 81.0049C176.621 78.9757 177.361 76.9974 178.875 75.5568C180.039 74.4413 181.435 73.9098 182.844 73.9159C184.075 73.9159 185.303 74.298 186.476 74.939C186.849 75.1439 186.986 75.6123 186.782 75.9852C186.578 76.358 186.109 76.4951 185.736 76.2918C184.733 75.7433 183.749 75.4551 182.844 75.4567C181.806 75.4628 180.854 75.808 179.937 76.6739C178.757 77.7986 178.167 79.3393 178.165 81.0049C178.164 82.8799 178.929 84.8906 180.462 86.5007C181.908 88.0199 183.744 88.8765 185.519 89.0445C185.943 89.0845 186.252 89.4605 186.212 89.8842C186.172 90.3079 185.796 90.6191 185.373 90.579" fill="#171938"></path>
<path d="M187.035 84.4578C187.035 84.4578 185.437 80.9788 182.354 82.2715Z" fill="white"></path>
<path d="M186.334 84.778L186.33 84.7672C186.286 84.6763 186 84.1247 185.528 83.6394C185.049 83.1464 184.442 82.7519 183.693 82.7535C183.391 82.7535 183.051 82.8151 182.652 82.9815C182.259 83.1464 181.807 82.9615 181.643 82.5686C181.479 82.1772 181.664 81.7258 182.056 81.5609C182.624 81.3221 183.176 81.2127 183.693 81.2127C185.103 81.2158 186.129 82 186.762 82.7042C187.405 83.416 187.713 84.0924 187.735 84.1355C187.912 84.5222 187.742 84.9799 187.356 85.157C186.969 85.3342 186.511 85.1647 186.334 84.778" fill="#171938"></path>
<path d="M90.1872 239.975C90.1872 239.975 77.3374 236.496 78.7241 233.481C80.1092 230.466 90.6294 234.475 90.6294 234.475C82.9765 230.377 88.6357 230.407 88.6357 230.407C94.6492 231.99 97.8493 228.551 100.051 226.489C129.424 199.001 138.744 136.106 181.032 152.219L170.028 176.138C156.863 196.205 125.946 230.449 125.946 230.449C109.391 248.474 100.501 248.867 100.501 248.867C94.8033 251.422 76.2774 246.724 77.1402 244.454C78.0061 242.185 90.181 245.171 90.181 245.171C90.181 245.171 76.8475 241.507 76.678 238.845C76.5085 236.181 90.1872 239.975 90.1872 239.975" fill="#FEF3DE"></path>
<path d="M90.1874 239.975L89.9871 240.718C89.9701 240.713 87.0612 239.928 84.1199 238.763C82.647 238.179 81.1679 237.506 80.0092 236.758C79.4284 236.382 78.9261 235.99 78.5363 235.544C78.1526 235.104 77.8537 234.577 77.8491 233.947C77.8476 233.68 77.9092 233.407 78.0232 233.159C78.3144 232.52 78.8814 232.107 79.4869 231.888C80.097 231.663 80.778 231.589 81.5068 231.588C83.4358 231.591 85.7485 232.139 87.6205 232.675C89.4863 233.215 90.8915 233.749 90.9038 233.754L90.6295 234.475L90.2659 235.153C88.6944 234.31 87.6559 233.635 86.9687 233.051C86.6251 232.757 86.3679 232.487 86.1753 232.204C85.9873 231.924 85.8532 231.612 85.8517 231.258C85.8502 231.005 85.9318 230.751 86.0597 230.56C86.2877 230.219 86.5835 230.058 86.8532 229.942C87.2615 229.773 87.6698 229.711 88.0026 229.674C88.3338 229.639 88.5834 229.637 88.6327 229.637L88.736 229.643L88.833 229.662C89.8422 229.928 90.7543 230.041 91.5848 230.041C93.5061 230.038 95.0083 229.446 96.2902 228.636C97.5706 227.824 98.6059 226.79 99.5258 225.927C112.429 213.864 121.524 194.701 131.336 178.489C136.248 170.383 141.345 163.009 147.266 157.621C153.177 152.236 159.969 148.842 168.11 148.847C172.167 148.847 176.546 149.685 181.307 151.5C181.507 151.575 181.664 151.729 181.746 151.928C181.828 152.127 181.823 152.346 181.732 152.541L170.73 176.46L170.674 176.562C157.438 196.724 126.53 230.948 126.518 230.965L126.513 230.97C109.878 249.089 100.797 249.627 100.537 249.637L100.501 248.867L100.817 249.571C99.4749 250.164 97.7062 250.372 95.6924 250.377C91.8775 250.375 87.1968 249.576 83.4173 248.542C81.5268 248.023 79.869 247.448 78.641 246.863C78.0247 246.568 77.5163 246.276 77.1172 245.95C76.9185 245.786 76.7444 245.613 76.5995 245.402C76.4593 245.192 76.3422 244.927 76.3422 244.613C76.3407 244.467 76.3684 244.317 76.4208 244.182C76.5456 243.85 76.7829 243.595 77.0371 243.422C77.8106 242.923 78.7766 242.849 79.9383 242.833C81.9613 242.835 84.5421 243.234 86.6467 243.63C88.7468 244.026 90.3568 244.42 90.3645 244.422L90.1812 245.171L89.9778 245.913C89.9655 245.91 86.619 244.991 83.2247 243.727C81.5253 243.095 79.8182 242.379 78.4808 241.627C77.8121 241.248 77.2343 240.864 76.7814 240.444C76.3392 240.023 75.9648 239.552 75.9093 238.892V238.891L75.9062 238.795C75.9 238.458 76.0387 238.103 76.2606 237.865C76.5949 237.503 77.0032 237.356 77.43 237.256C77.8614 237.16 78.339 237.127 78.8675 237.125C80.9074 237.13 83.7486 237.66 86.1275 238.184C88.5018 238.707 90.3845 239.231 90.3938 239.233C90.8036 239.347 91.0424 239.769 90.93 240.179C90.8175 240.589 90.3969 240.831 89.9871 240.718L90.1874 239.975L89.9809 240.718C89.9809 240.717 89.5218 240.59 88.7653 240.396C87.6313 240.106 85.8378 239.67 83.9828 239.31C82.1308 238.948 80.2018 238.664 78.8675 238.666C78.2605 238.663 77.7767 238.732 77.5487 238.821L77.43 238.877L77.4053 238.894L77.3114 238.795H77.4469L77.4053 238.894L77.3114 238.795H77.4469V238.797V238.795L77.5132 238.949C77.6195 239.128 77.9076 239.421 78.336 239.721C79.8443 240.801 82.9043 242.02 85.5297 242.915C86.847 243.367 88.0627 243.746 88.9486 244.011C89.8345 244.277 90.3845 244.427 90.3861 244.428C90.7913 244.539 91.0332 244.957 90.9269 245.365C90.8221 245.772 90.4061 246.02 89.9979 245.92C89.9979 245.918 89.608 245.823 88.9548 245.678C87.0042 245.24 82.687 244.37 79.9383 244.374C79.2481 244.373 78.6595 244.431 78.2851 244.538C78.0987 244.588 77.9693 244.65 77.9092 244.693L77.8583 244.735L77.8568 244.736L77.8152 244.712L77.8614 244.729L77.8568 244.736L77.8152 244.712L77.8614 244.729L77.5579 244.613H77.8814L77.8614 244.727L77.5579 244.613H77.8814H77.6365L77.8691 244.53L77.8814 244.613H77.6365L77.8691 244.53L77.8245 244.545L77.8676 244.524L77.8691 244.53L77.8245 244.545L77.8676 244.524C77.8676 244.544 78.0448 244.755 78.3837 244.969C78.9754 245.357 80.003 245.823 81.2757 246.268C85.0998 247.613 91.1827 248.841 95.6924 248.836C97.5875 248.841 99.2068 248.611 100.187 248.164L100.467 248.098H100.47C100.755 248.077 109.42 247.3 125.379 229.928L125.375 229.933C125.376 229.931 125.855 229.4 126.726 228.426C132.812 221.613 157.926 193.185 169.385 175.716L170.029 176.138L169.329 175.816L180.333 151.897L181.032 152.219L180.758 152.939C176.142 151.181 171.954 150.388 168.11 150.388C160.411 150.392 154.04 153.552 148.303 158.761C139.702 166.571 132.675 179.008 125.378 191.807C118.073 204.606 110.491 217.769 100.578 227.052C99.686 227.884 98.5736 229.01 97.1161 229.936C95.6601 230.863 93.8343 231.585 91.5848 231.581C90.6141 231.581 89.568 231.449 88.4401 231.152L88.6358 230.407L88.5372 231.172L88.6327 230.432V231.178L88.5372 231.172L88.6327 230.432V231.178C88.6173 231.176 88.1474 231.182 87.7576 231.27C87.565 231.31 87.3955 231.378 87.3462 231.414L87.3308 231.426L87.1706 231.258H87.3924L87.3308 231.426L87.1706 231.258H87.3924H87.2353L87.3909 231.229L87.3924 231.258H87.2353L87.3909 231.229V231.23C87.3955 231.281 87.6097 231.614 88.1844 232.054C88.7545 232.503 89.662 233.082 90.9932 233.796C91.3522 233.987 91.5001 234.424 91.3306 234.794C91.1626 235.164 90.7358 235.339 90.3553 235.195C90.3553 235.195 90.2752 235.164 90.1211 235.107C89.5787 234.909 88.1566 234.409 86.4988 233.962C84.844 233.514 82.9397 233.125 81.5068 233.128C80.8921 233.127 80.3713 233.201 80.0216 233.333C79.6641 233.47 79.5115 233.618 79.4237 233.803L79.3898 233.947C79.3852 234.042 79.4484 234.247 79.6964 234.532C80.1217 235.028 81.0307 235.64 82.1308 236.194C83.781 237.037 85.8579 237.803 87.5111 238.351C88.3385 238.626 89.0595 238.846 89.5741 238.999C90.0872 239.15 90.3876 239.231 90.3892 239.231C90.5879 239.285 90.7543 239.415 90.856 239.593C90.9592 239.772 90.9854 239.98 90.93 240.179C90.876 240.378 90.7466 240.544 90.5679 240.646C90.3892 240.747 90.1796 240.772 89.9809 240.718L90.1874 239.975" fill="#171938"></path>
<path d="M170.067 111.59L196.466 121.069L194.794 199.793C194.794 199.793 179.51 198.938 170.067 214.284C160.624 229.628 153.638 238.652 132.884 246.026C132.884 246.026 102.784 203.07 170.067 111.59Z" fill="#FFD74B"></path>
<path d="M170.067 111.59L170.327 110.865L196.726 120.343C197.036 120.454 197.243 120.755 197.236 121.084L195.565 199.808C195.56 200.018 195.471 200.217 195.317 200.359C195.164 200.5 194.959 200.574 194.751 200.562L194.659 200.559L194.355 200.554C193.141 200.554 189.288 200.721 184.724 202.569C180.159 204.423 174.882 207.934 170.723 214.687C165.993 222.371 161.849 228.533 156.239 233.709C150.632 238.888 143.585 243.043 133.142 246.752C132.817 246.867 132.453 246.752 132.254 246.468C132.182 246.37 125.401 236.624 125.402 216.703C125.401 194.436 133.867 159.506 169.446 111.133C169.648 110.86 170.007 110.751 170.327 110.865L170.067 111.59L170.688 112.046C135.246 160.236 126.943 194.837 126.943 216.703C126.943 226.486 128.606 233.729 130.257 238.516C131.083 240.911 131.906 242.689 132.519 243.864C132.826 244.451 133.078 244.887 133.254 245.174C133.34 245.317 133.408 245.422 133.453 245.491L133.502 245.565L133.516 245.584L132.884 246.026L132.627 245.299C142.938 241.633 149.76 237.591 155.194 232.577C160.628 227.563 164.698 221.541 169.411 213.88C173.749 206.825 179.333 203.087 184.146 201.143C188.961 199.194 193.004 199.015 194.355 199.013C194.656 199.013 194.824 199.023 194.838 199.024L194.794 199.793L194.024 199.776L195.683 121.607L169.807 112.314L170.067 111.59L170.688 112.046L170.067 111.59" fill="#171938"></path>
<path d="M194.306 168.313C200.421 149.133 217.681 114.494 217.681 114.494C226.991 96.1997 234.086 93.8793 234.086 93.8793C238.114 90.5313 254.142 90.1507 253.954 92.1783C253.768 94.2075 243.257 94.5388 243.257 94.5388C243.257 94.5388 254.857 94.4941 255.594 96.608C256.332 98.7203 244.423 98.7373 244.423 98.7373C244.423 98.7373 255.589 98.6526 255.15 101.401C254.709 104.15 245.306 103.282 245.306 103.282C252.412 104.868 247.834 106.119 247.834 106.119C242.621 106.196 240.809 109.697 239.494 111.858C221.959 140.687 228.607 193.605 190.807 190.119" fill="#FEF3DE"></path>
<path d="M193.573 168.078C199.728 148.787 216.983 114.171 216.99 114.151L216.993 114.146C226.358 95.7404 233.598 93.2274 233.846 93.1473L234.086 93.8791L233.593 93.2875C235.02 92.1212 237.362 91.4078 240.02 90.9009C242.671 90.4048 245.62 90.166 248.147 90.166C249.825 90.1675 251.309 90.2692 252.432 90.4864C252.996 90.5974 253.466 90.7299 253.868 90.9379C254.068 91.0427 254.256 91.169 254.424 91.3601C254.591 91.5465 254.729 91.833 254.726 92.1427L254.721 92.2537V92.249C254.695 92.5418 254.57 92.8068 254.415 93.0071C254.116 93.3877 253.731 93.6142 253.293 93.8175C252.524 94.1627 251.548 94.4045 250.48 94.6017C247.287 95.1857 243.302 95.3074 243.281 95.309L243.257 94.5386L243.252 93.7682H243.315C243.773 93.7682 246.68 93.779 249.594 94.0456C251.053 94.1811 252.509 94.3768 253.695 94.6834C254.29 94.839 254.817 95.0177 255.265 95.2581C255.704 95.5015 256.119 95.8066 256.321 96.3536C256.369 96.4892 256.398 96.6386 256.398 96.7927C256.399 97.1024 256.273 97.3967 256.11 97.6031C255.797 97.9929 255.402 98.1901 254.954 98.375C254.167 98.6816 253.153 98.8835 252.033 99.0406C248.689 99.5044 244.442 99.5075 244.425 99.5075C243.999 99.509 243.654 99.167 243.653 98.7417C243.651 98.3165 243.992 97.9714 244.417 97.9667H244.534C245.121 97.9683 247.796 97.9837 250.372 98.3134C251.663 98.4813 252.925 98.7202 253.937 99.1069C254.444 99.3041 254.896 99.5337 255.267 99.8649C255.634 100.185 255.936 100.677 255.933 101.245L255.909 101.523C255.8 102.224 255.327 102.746 254.794 103.077C253.983 103.581 252.95 103.825 251.834 103.983C250.72 104.136 249.529 104.182 248.466 104.182C246.676 104.182 245.251 104.051 245.235 104.05L245.306 103.282L245.474 102.53C247.061 102.886 248.098 103.222 248.807 103.575C249.159 103.755 249.437 103.937 249.66 104.173C249.882 104.401 250.058 104.731 250.056 105.093C250.05 105.564 249.796 105.886 249.582 106.085C249.244 106.388 248.881 106.55 248.582 106.675C248.284 106.794 248.056 106.857 248.036 106.861L247.845 106.889C245.409 106.932 243.879 107.732 242.721 108.777C241.565 109.826 240.821 111.155 240.152 112.259C231.774 126.008 228.934 145.566 223.978 161.766C221.491 169.867 218.469 177.147 213.844 182.461C209.228 187.78 202.94 191.066 194.261 191.054C193.127 191.054 191.953 190.998 190.736 190.886C190.312 190.847 190.001 190.473 190.04 190.049C190.078 189.625 190.454 189.313 190.878 189.353C192.05 189.461 193.178 189.513 194.261 189.513C202.557 189.499 208.288 186.473 212.682 181.449C219.269 173.911 222.66 161.712 225.925 148.753C229.204 135.793 232.378 122.085 238.836 111.457C239.484 110.399 240.302 108.898 241.684 107.636C243.063 106.371 245.044 105.382 247.822 105.348L247.834 106.119L247.631 105.376L247.671 105.364C247.782 105.331 248.093 105.225 248.323 105.097L248.549 104.939L248.557 104.931L248.78 105.093H248.515L248.557 104.931L248.78 105.093H248.515H248.828L248.542 105.224L248.515 105.093H248.828L248.542 105.224L248.668 105.167L248.552 105.244L248.542 105.224L248.668 105.167L248.552 105.244L248.52 105.21C248.432 105.122 248.127 104.926 247.577 104.72C247.025 104.51 246.229 104.278 245.138 104.034C244.741 103.946 244.482 103.564 244.545 103.164C244.608 102.762 244.972 102.478 245.377 102.515C245.377 102.515 245.713 102.546 246.272 102.578C246.833 102.611 247.608 102.641 248.466 102.641C249.82 102.643 251.387 102.558 252.577 102.287C253.17 102.154 253.665 101.971 253.97 101.775C254.281 101.571 254.364 101.421 254.389 101.279L254.392 101.245C254.387 101.204 254.393 101.161 254.238 101.011C253.973 100.759 253.249 100.441 252.34 100.227C249.591 99.5475 245.251 99.5044 244.534 99.5075H244.429C244.224 99.509 244.029 99.4304 243.882 99.2856C243.736 99.1408 243.654 98.9466 243.653 98.7417C243.653 98.5353 243.731 98.3411 243.878 98.1948C244.023 98.0484 244.217 97.9683 244.422 97.9667C244.425 97.9667 245.11 97.9667 246.15 97.9344C247.71 97.8882 250.056 97.7711 251.971 97.4937C252.927 97.3566 253.777 97.1733 254.322 96.9668C254.594 96.8666 254.786 96.7557 254.857 96.6941L254.889 96.6633L255.088 96.7927H254.857L254.889 96.6633L255.088 96.7927H254.857H255.065L254.866 96.8605L254.857 96.7927H255.065L254.866 96.8605H254.865C254.848 96.822 254.664 96.6586 254.332 96.5153C253.754 96.255 252.785 96.0192 251.686 95.8498C248.377 95.329 243.861 95.3074 243.315 95.309H243.261C242.841 95.312 242.496 94.9746 242.486 94.554C242.479 94.1334 242.813 93.7821 243.234 93.7698C243.235 93.7698 243.876 93.7482 244.853 93.6866C246.318 93.5941 248.528 93.4046 250.344 93.0595C251.25 92.89 252.061 92.6743 252.592 92.4432C252.856 92.3291 253.048 92.209 253.135 92.1289L253.199 92.0595L253.296 92.1181L253.187 92.1073L253.199 92.0595L253.296 92.1181L253.187 92.1073L253.188 92.1042L253.594 92.1427H253.185L253.188 92.1042L253.594 92.1427H253.185H253.518L253.259 92.3677L253.185 92.1427H253.518L253.259 92.3677L253.296 92.3353L253.262 92.3708L253.259 92.3677L253.296 92.3353L253.262 92.3708C253.256 92.3584 253.085 92.2491 252.803 92.1628C251.945 91.8824 250.189 91.7021 248.147 91.7067C245.717 91.7067 242.839 91.9394 240.303 92.4139C237.77 92.8777 235.559 93.6357 234.578 94.4723L234.325 94.611L234.31 94.5632L234.327 94.611H234.325L234.31 94.5632L234.327 94.611C234.14 94.6788 227.335 97.2287 218.366 114.844L218.369 114.838C218.369 114.839 218.101 115.377 217.617 116.36C214.239 123.235 200.355 151.866 195.041 168.547C194.911 168.952 194.479 169.175 194.072 169.047C193.667 168.918 193.443 168.483 193.573 168.078" fill="#171938"></path>
<path d="M198.138 156.175L190.807 190.119C190.807 190.119 147.373 152.05 162.46 131.404C174.689 114.672 198.138 156.175 198.138 156.175Z" fill="#FFD74B"></path>
<path d="M198.138 156.175L198.89 156.338L191.56 190.282C191.502 190.548 191.308 190.766 191.049 190.85C190.79 190.937 190.503 190.878 190.298 190.698C190.28 190.683 182.374 183.754 174.449 174.173C170.484 169.382 166.516 163.929 163.523 158.325C160.536 152.723 158.511 146.967 158.507 141.534C158.504 137.764 159.502 134.144 161.839 130.95C163.981 127.993 166.631 126.645 169.398 126.659C172.828 126.671 176.302 128.583 179.65 131.325C184.67 135.453 189.434 141.556 192.972 146.639C196.506 151.722 198.8 155.782 198.808 155.796C198.9 155.959 198.93 156.155 198.89 156.338L198.138 156.175L197.466 156.554C197.466 156.552 197.218 156.114 196.753 155.335C195.127 152.605 190.87 145.751 185.69 139.618C183.1 136.552 180.279 133.666 177.469 131.57C174.657 129.47 171.868 128.192 169.398 128.199C167.129 128.212 165.044 129.201 163.083 131.859C160.955 134.775 160.051 138.028 160.048 141.534C160.044 146.576 161.96 152.13 164.884 157.6C169.263 165.809 175.879 173.813 181.394 179.746C184.152 182.714 186.636 185.165 188.428 186.874C189.325 187.727 190.047 188.396 190.546 188.849C191.044 189.304 191.314 189.539 191.314 189.539L190.807 190.119L190.053 189.957L197.384 156.013L198.138 156.175L197.466 156.554L198.138 156.175Z" fill="#171938"></path>
<path d="M260.552 137.714C261.071 136.534 261.661 135.391 262.317 134.29C270.243 120.954 287.787 113.723 302.734 118.218C304.255 118.674 305.758 119.248 307.088 120.042C307.898 120.524 308.644 121.086 309.298 121.75C311.02 123.497 311.989 126.118 311.297 128.372C311.181 128.755 311.021 129.113 310.823 129.447C310.07 130.715 308.745 131.634 307.231 132.078C305.718 132.524 304.03 132.488 302.596 131.9C302.229 131.75 301.878 131.574 301.542 131.374C298.849 129.779 297.121 126.602 296.638 123.384C296.054 119.515 297.041 115.669 299.053 112.287C301.343 108.439 304.963 105.208 309.04 103.295C316.722 99.6806 325.696 99.7993 334.226 100.944C334.489 100.979 334.732 100.794 334.767 100.53C334.802 100.266 334.617 100.024 334.353 99.9887C325.75 98.8389 316.591 98.6852 308.629 102.422C304.378 104.422 300.624 107.769 298.226 111.795C296.121 115.33 295.064 119.402 295.686 123.528C296.209 126.973 298.034 130.4 301.049 132.202C301.425 132.426 301.82 132.624 302.232 132.792C303.899 133.472 305.794 133.503 307.502 133.003C309.209 132.5 310.745 131.458 311.651 129.94C311.888 129.541 312.081 129.11 312.22 128.651C313.029 125.945 311.897 123.024 309.985 121.075C309.264 120.342 308.449 119.731 307.581 119.214C306.152 118.363 304.578 117.765 303.011 117.295C287.586 112.683 269.669 120.075 261.489 133.797C260.813 134.931 260.205 136.109 259.671 137.326C259.563 137.571 259.674 137.854 259.918 137.962C260.162 138.069 260.446 137.958 260.552 137.714" fill="#171938"></path>
<path d="M323.453 107.843L335.007 100.585L326.385 89.9966C326.217 89.7909 325.913 89.7594 325.708 89.9276C325.501 90.0953 325.47 90.3988 325.638 90.6045L333.572 100.348L322.94 107.027C322.714 107.168 322.647 107.466 322.789 107.691C322.93 107.916 323.227 107.984 323.453 107.843" fill="#171938"></path>
<path d="M3.09723 334.822L-0.532765 300.383L-15.2191 301.932L-11.5891 336.37L3.09723 334.822" fill="white"></path>
<path d="M131.427 15.918H132.22C132.22 17.5496 132.878 19.018 133.946 20.0888C135.015 21.1565 136.485 21.8144 138.117 21.8144C139.747 21.8144 141.215 21.1565 142.284 20.0872C143.354 19.018 144.012 17.5496 144.012 15.918C144.012 14.2879 143.354 12.8195 142.284 11.7503C141.215 10.681 139.747 10.0231 138.117 10.0231C136.485 10.0231 135.015 10.681 133.946 11.7503C132.878 12.8195 132.22 14.2879 132.22 15.918H131.427H130.633C130.633 11.7857 133.983 8.43613 138.117 8.43613C142.249 8.43613 145.599 11.7857 145.599 15.918C145.599 20.0518 142.249 23.4014 138.117 23.4014C133.983 23.4014 130.633 20.0518 130.633 15.918H131.427Z" fill="#171938"></path>
<path d="M80.8405 175.985C79.5035 178.169 76.9742 179.168 74.4172 179.167C72.8031 179.166 71.1646 178.773 69.7634 178.012C66.1729 176.056 63.962 172.451 62.1546 168.949C61.7098 168.084 61.5138 167.383 61.5124 166.817C61.5117 166.397 61.626 166.039 61.8565 165.783C62.0856 165.526 62.4202 165.402 62.7548 165.404C63.4165 165.41 64.114 165.82 64.6663 166.541C65.2172 167.264 65.6139 168.318 65.6132 169.662C65.6132 170.701 65.3773 171.912 64.7981 173.282C64.112 174.902 63.1549 176.548 61.9058 177.843C60.6587 179.137 59.1034 180.084 57.2507 180.242C57.056 180.259 56.8641 180.267 56.6741 180.267C55.4453 180.268 54.328 179.923 53.3168 179.354C51.7987 178.499 50.5084 177.15 49.3282 175.662C48.1487 174.174 47.0801 172.543 46.0324 171.114C45.0118 169.721 43.912 167.673 42.6683 165.915C42.0485 165.037 41.3935 164.234 40.7115 163.629C40.0282 163.022 39.3245 162.62 38.6067 162.501C38.3586 162.461 38.1261 162.442 37.9078 162.442C36.9622 162.445 36.2808 162.789 35.7218 163.354C34.8864 164.202 34.3855 165.59 34.0712 166.941C33.7522 168.297 33.6157 169.587 33.4163 170.316C33.1425 171.305 32.6802 172.324 32.0103 173.143C31.3432 173.961 30.449 174.586 29.3398 174.714C29.1938 174.731 29.0498 174.739 28.9078 174.739C27.6864 174.738 26.653 174.139 25.7371 173.38C24.8185 172.618 23.9946 171.678 23.1875 170.911C20.8556 168.688 17.5814 167.502 14.3221 167.503C12.3288 167.503 10.3436 167.946 8.58482 168.857C8.4199 168.943 8.21509 168.881 8.1279 168.719C8.0407 168.557 8.10425 168.356 8.26917 168.271C10.134 167.304 12.2274 166.839 14.3221 166.839C17.7456 166.84 21.1834 168.079 23.6579 170.434C24.4941 171.231 25.3106 172.159 26.1731 172.873C27.0376 173.59 27.9257 174.077 28.9078 174.075C29.0234 174.075 29.141 174.069 29.2607 174.055C30.1509 173.952 30.8876 173.453 31.4838 172.727C32.0773 172.003 32.5112 171.06 32.764 170.142C32.8789 169.73 32.9864 168.992 33.1385 168.141C33.369 166.862 33.7015 165.312 34.3977 164.045C34.7472 163.412 35.1906 162.847 35.7705 162.435C36.3491 162.024 37.0663 161.777 37.9078 161.778C38.1667 161.778 38.4364 161.801 38.7189 161.847C39.6145 161.996 40.4236 162.479 41.1644 163.137C42.2763 164.125 43.253 165.52 44.1479 166.921C45.0408 168.321 45.8492 169.73 46.5806 170.726C47.996 172.658 49.4188 174.901 51.0471 176.642C51.8609 177.513 52.7234 178.256 53.6521 178.778C54.5822 179.3 55.5744 179.602 56.6741 179.603C56.8445 179.603 57.0169 179.596 57.1926 179.581C58.8385 179.44 60.2417 178.601 61.4151 177.387C62.5865 176.175 63.5125 174.592 64.1735 173.027C64.7244 171.725 64.9373 170.602 64.9373 169.662C64.9373 168.446 64.5811 167.537 64.1249 166.937C63.6713 166.335 63.1083 166.061 62.7548 166.067C62.5736 166.07 62.456 166.122 62.3621 166.223C62.2695 166.326 62.189 166.509 62.1883 166.817C62.187 167.228 62.3418 167.845 62.7575 168.649C64.5466 172.126 66.7116 175.599 70.0906 177.431C71.3816 178.134 72.9153 178.504 74.4172 178.503C76.8079 178.502 79.0837 177.574 80.2612 175.644C80.3572 175.486 80.5647 175.435 80.7249 175.529C80.8851 175.624 80.9365 175.828 80.8405 175.985" fill="#171938"></path>
</g>
<g filter="url(#filter0_d_1404_651)">
<rect x="359" y="27" width="169" height="131" rx="10" fill="white"></rect>
</g>
<path d="M383.192 59L383.192 58.208L378.908 58.208L378.908 55.076L382.784 55.076L382.784 54.296L378.908 54.296L378.908 51.2L383.18 51.2L383.18 50.408L378.044 50.408L378.044 59L383.192 59ZM385.594 59L385.594 55.964C385.594 54.656 386.266 53.792 387.454 53.792C388.414 53.792 389.026 54.272 389.026 55.628L389.026 59L389.854 59L389.854 55.448C389.854 53.984 389.194 53.036 387.598 53.036C386.758 53.036 385.99 53.456 385.606 54.2L385.486 53.192L384.766 53.192L384.766 59L385.594 59ZM392.837 59L392.837 53.888L394.001 53.888L394.001 53.192L392.837 53.192L392.837 51.356L392.021 51.356L392.021 53.192L390.857 53.192L390.857 53.888L392.021 53.888L392.021 59L392.837 59ZM397.456 59.144C398.824 59.144 399.724 58.484 400.036 57.26L399.244 57.26C399.028 58.028 398.416 58.436 397.468 58.436C396.22 58.436 395.476 57.62 395.416 56.204L400.036 56.204L400.036 55.796C400.036 54.152 398.968 53.036 397.396 53.036C395.74 53.036 394.612 54.284 394.612 56.096C394.612 57.92 395.752 59.144 397.456 59.144ZM397.396 53.744C398.488 53.744 399.208 54.488 399.208 55.604L395.44 55.604C395.584 54.464 396.304 53.744 397.396 53.744ZM404.396 53.12C404.192 53.072 404.036 53.06 403.856 53.06C403.04 53.06 402.428 53.468 402.2 54.092L402.14 53.192L401.36 53.192L401.36 59L402.188 59L402.188 55.688C402.188 54.584 402.872 53.864 403.94 53.864L404.396 53.864L404.396 53.12ZM410.493 59.144C411.477 59.144 412.269 58.712 412.629 57.98L412.737 59L413.433 59L413.433 55.244C413.433 53.708 412.449 53.036 411.105 53.036C409.677 53.036 408.717 53.792 408.717 54.968L409.473 54.968C409.473 54.188 410.073 53.732 411.081 53.732C411.933 53.732 412.617 54.092 412.617 55.232L412.617 55.424L410.697 55.58C409.341 55.688 408.525 56.36 408.525 57.428C408.525 58.448 409.257 59.144 410.493 59.144ZM410.685 58.472C409.893 58.472 409.365 58.112 409.365 57.404C409.365 56.756 409.809 56.276 410.901 56.18L412.617 56.048L412.617 56.36C412.617 57.62 411.909 58.472 410.685 58.472ZM415.923 59L415.923 55.4C415.923 54.512 416.511 53.792 417.483 53.792C418.359 53.792 418.923 54.368 418.923 55.352L418.923 59L419.739 59L419.739 55.412C419.739 54.512 420.315 53.78 421.287 53.78C422.175 53.78 422.727 54.368 422.727 55.364L422.727 59L423.531 59L423.531 55.196C423.531 53.852 422.703 53.036 421.443 53.036C420.507 53.036 419.799 53.516 419.535 54.272C419.259 53.516 418.575 53.036 417.663 53.036C416.847 53.036 416.199 53.408 415.911 54.02L415.815 53.192L415.095 53.192L415.095 59L415.923 59ZM424.788 56.096C424.788 57.86 426.036 59.144 427.74 59.144C429.444 59.144 430.692 57.86 430.692 56.096C430.692 54.32 429.444 53.036 427.74 53.036C426.036 53.036 424.788 54.32 424.788 56.096ZM425.628 56.084C425.628 54.74 426.492 53.78 427.74 53.78C428.976 53.78 429.852 54.74 429.852 56.084C429.852 57.452 428.976 58.4 427.74 58.4C426.492 58.4 425.628 57.452 425.628 56.084ZM435.956 53.192L435.956 56.276C435.956 57.656 435.296 58.4 434.18 58.4C433.256 58.4 432.644 57.908 432.644 56.528L432.644 53.18L431.804 53.18L431.804 56.792C431.804 58.208 432.548 59.144 433.916 59.144C434.828 59.144 435.632 58.688 435.956 58.016L436.064 59L436.784 59L436.784 53.192L435.956 53.192ZM439.337 59L439.337 55.964C439.337 54.656 440.009 53.792 441.197 53.792C442.157 53.792 442.769 54.272 442.769 55.628L442.769 59L443.597 59L443.597 55.448C443.597 53.984 442.937 53.036 441.341 53.036C440.501 53.036 439.733 53.456 439.349 54.2L439.229 53.192L438.509 53.192L438.509 59L439.337 59ZM446.579 59L446.579 53.888L447.743 53.888L447.743 53.192L446.579 53.192L446.579 51.356L445.763 51.356L445.763 53.192L444.599 53.192L444.599 53.888L445.763 53.888L445.763 59L446.579 59Z" fill="#3D4066"></path>
<path d="M381.112 89.552L382.136 89.552L382.136 88.16C384.248 87.968 385.608 86.688 385.608 84.784C385.608 83.184 384.68 82.176 382.76 81.744L382.136 81.6L382.136 77.632C383.176 77.776 383.8 78.432 383.864 79.456L385.416 79.456C385.304 77.6 384.072 76.416 382.136 76.24L382.136 74.864L381.112 74.864L381.112 76.256C379.032 76.432 377.672 77.728 377.672 79.552C377.672 81.2 378.648 82.256 380.536 82.688L381.112 82.816L381.112 86.8C379.896 86.672 379.144 86 379.112 84.976L377.512 84.976C377.608 86.848 379 88.048 381.112 88.176L381.112 89.552ZM380.856 81.296C379.736 81.024 379.208 80.432 379.208 79.504C379.208 78.48 379.928 77.792 381.112 77.632L381.112 81.36L380.856 81.296ZM382.44 83.136C383.544 83.392 384.072 83.984 384.072 84.912C384.072 85.92 383.336 86.608 382.136 86.768L382.136 83.072L382.44 83.136ZM394.778 87.984L394.778 86.528L389.434 86.528L391.834 84.448C393.882 82.672 394.698 81.504 394.698 79.856C394.698 77.632 393.21 76.224 390.89 76.224C388.538 76.224 386.97 77.84 386.922 80.32L388.49 80.32C388.522 78.672 389.45 77.632 390.874 77.632C392.266 77.632 393.098 78.496 393.098 79.952C393.098 81.184 392.57 81.968 390.698 83.584L386.97 86.8L386.97 88L394.778 87.984ZM400 88.192C402.496 88.192 404.208 86.512 404.208 84.112C404.208 81.888 402.688 80.24 400.336 80.24C399.472 80.24 398.704 80.48 398.096 80.944L398.864 77.872L403.52 77.872L403.52 76.432L397.728 76.432L396.32 82.368L397.648 82.704C398.176 82.048 399.072 81.584 400.048 81.584C401.664 81.584 402.608 82.688 402.608 84.176C402.608 85.744 401.6 86.784 400.032 86.784C398.56 86.784 397.648 85.872 397.648 84.384L396.096 84.384C396.096 86.688 397.632 88.192 400 88.192ZM405.565 82.224C405.565 85.824 407.341 88.208 410.333 88.208C413.309 88.208 415.085 85.824 415.085 82.224C415.085 78.64 413.229 76.208 410.333 76.208C407.421 76.208 405.565 78.64 405.565 82.224ZM407.117 82.224C407.117 79.344 408.301 77.616 410.333 77.616C412.365 77.616 413.533 79.344 413.533 82.224C413.533 85.072 412.365 86.8 410.333 86.8C408.301 86.8 407.117 85.072 407.117 82.224ZM417.427 88.192C418.035 88.192 418.563 87.68 418.563 87.072C418.563 86.448 418.035 85.936 417.427 85.936C416.803 85.936 416.275 86.448 416.275 87.072C416.275 87.68 416.803 88.192 417.427 88.192ZM419.768 82.224C419.768 85.824 421.544 88.208 424.536 88.208C427.512 88.208 429.288 85.824 429.288 82.224C429.288 78.64 427.432 76.208 424.536 76.208C421.624 76.208 419.768 78.64 419.768 82.224ZM421.32 82.224C421.32 79.344 422.504 77.616 424.536 77.616C426.568 77.616 427.736 79.344 427.736 82.224C427.736 85.072 426.568 86.8 424.536 86.8C422.504 86.8 421.32 85.072 421.32 82.224ZM430.862 82.224C430.862 85.824 432.638 88.208 435.63 88.208C438.606 88.208 440.382 85.824 440.382 82.224C440.382 78.64 438.526 76.208 435.63 76.208C432.718 76.208 430.862 78.64 430.862 82.224ZM432.414 82.224C432.414 79.344 433.598 77.616 435.63 77.616C437.662 77.616 438.83 79.344 438.83 82.224C438.83 85.072 437.662 86.8 435.63 86.8C433.598 86.8 432.414 85.072 432.414 82.224Z" fill="#171938"></path>
<rect x="373" y="114" width="141" height="28" rx="5" fill="#346AF8"></rect>
<path d="M428.44 125.149C428.44 126.605 429.285 127.528 430.897 127.879L432.405 128.217C433.185 128.386 433.51 128.763 433.51 129.4C433.51 130.193 432.808 130.674 431.703 130.674C430.637 130.674 429.987 130.193 429.974 129.387L428.31 129.387C428.349 131.09 429.675 132.169 431.703 132.169C433.796 132.169 435.174 131.025 435.174 129.257C435.174 127.84 434.381 127.008 432.756 126.657L431.261 126.332C430.468 126.15 430.104 125.773 430.104 125.097C430.104 124.304 430.767 123.81 431.794 123.81C432.73 123.81 433.315 124.291 433.354 125.11L435.018 125.11C434.966 123.394 433.744 122.328 431.82 122.328C429.818 122.328 428.44 123.485 428.44 125.149ZM439.319 132.169C440.996 132.169 442.166 131.324 442.439 129.92L440.97 129.92C440.788 130.531 440.216 130.869 439.345 130.869C438.292 130.869 437.694 130.297 437.577 129.166L442.413 129.153L442.413 128.672C442.413 126.67 441.191 125.383 439.267 125.383C437.382 125.383 436.069 126.774 436.069 128.789C436.069 130.778 437.408 132.169 439.319 132.169ZM439.28 126.683C440.229 126.683 440.84 127.268 440.84 128.152L437.616 128.152C437.772 127.19 438.344 126.683 439.28 126.683ZM445.268 132L445.268 128.542C445.268 127.502 445.866 126.826 446.841 126.826C447.66 126.826 448.193 127.346 448.193 128.425L448.193 132L449.779 132L449.779 128.048C449.779 126.384 448.947 125.383 447.335 125.383C446.464 125.383 445.684 125.76 445.281 126.41L445.151 125.578L443.682 125.578L443.682 132L445.268 132ZM453.976 132.169C454.951 132.169 455.783 131.74 456.173 130.999L456.277 132L457.733 132L457.733 122.328L456.16 122.328L456.16 126.397C455.757 125.76 454.964 125.383 454.067 125.383C452.13 125.383 450.96 126.813 450.96 128.815C450.96 130.804 452.117 132.169 453.976 132.169ZM454.327 130.713C453.222 130.713 452.546 129.907 452.546 128.763C452.546 127.619 453.222 126.8 454.327 126.8C455.432 126.8 456.147 127.606 456.147 128.763C456.147 129.92 455.432 130.713 454.327 130.713Z" fill="white"></path>
<rect x="373" y="99" width="141" height="1" fill="#EEEEEE"></rect>
<defs>
<filter id="filter0_d_1404_651" x="339" y="13" width="209" height="171" filterUnits="userSpaceOnUse" color-interpolation-filters="sRGB">
<feFlood flood-opacity="0" result="BackgroundImageFix"></feFlood>
<feColorMatrix in="SourceAlpha" type="matrix" values="0 0 0 0 0 0 0 0 0 0 0 0 0 0 0 0 0 0 127 0" result="hardAlpha"></feColorMatrix>
<feOffset dy="6"></feOffset>
<feGaussianBlur stdDeviation="10"></feGaussianBlur>
<feColorMatrix type="matrix" values="0 0 0 0 0 0 0 0 0 0 0 0 0 0 0 0 0 0 0.11 0"></feColorMatrix>
<feBlend mode="normal" in2="BackgroundImageFix" result="effect1_dropShadow_1404_651"></feBlend>
<feBlend mode="normal" in="SourceGraphic" in2="effect1_dropShadow_1404_651" result="shape"></feBlend>
</filter>
</defs>
</svg>