<svg xmlns:xlink="http://www.w3.org/1999/xlink" xmlns="http://www.w3.org/2000/svg" width="114" height="37" viewBox="0 0 114 37" fill="none">
<path d="M7.134 29V9.048H11.107V29H7.134ZM0.638 12.122V8.613H17.603V12.122H0.638ZM23.0199 29.29C21.6085 29.29 20.3325 28.971 19.1919 28.333C18.0705 27.6757 17.1715 26.796 16.4949 25.694C15.8375 24.5727 15.5089 23.3257 15.5089 21.953C15.5089 20.5803 15.8375 19.3527 16.4949 18.27C17.1522 17.168 18.0512 16.298 19.1919 15.66C20.3325 15.0027 21.5989 14.674 22.9909 14.674C24.4215 14.674 25.6975 15.0027 26.8189 15.66C27.9596 16.298 28.8585 17.168 29.5159 18.27C30.1732 19.3527 30.5019 20.5803 30.5019 21.953C30.5019 23.3257 30.1732 24.5727 29.5159 25.694C28.8585 26.796 27.9596 27.6757 26.8189 28.333C25.6975 28.971 24.4312 29.29 23.0199 29.29ZM22.9909 25.752C23.7062 25.752 24.3345 25.5973 24.8759 25.288C25.4365 24.9593 25.8619 24.5147 26.1519 23.954C26.4612 23.374 26.6159 22.7167 26.6159 21.982C26.6159 21.2473 26.4612 20.5997 26.1519 20.039C25.8425 19.4783 25.4172 19.0433 24.8759 18.734C24.3345 18.4053 23.7062 18.241 22.9909 18.241C22.2949 18.241 21.6762 18.4053 21.1349 18.734C20.5935 19.0433 20.1682 19.4783 19.8589 20.039C19.5495 20.5997 19.3949 21.2473 19.3949 21.982C19.3949 22.7167 19.5495 23.374 19.8589 23.954C20.1682 24.5147 20.5935 24.9593 21.1349 25.288C21.6762 25.5973 22.2949 25.752 22.9909 25.752ZM40.7196 29.29C39.7143 29.29 38.8056 29.087 37.9936 28.681C37.1816 28.2557 36.534 27.6853 36.0506 26.97C35.5673 26.2547 35.3063 25.433 35.2676 24.505V19.546C35.3063 18.618 35.5673 17.7963 36.0506 17.081C36.5533 16.3463 37.201 15.7663 37.9936 15.341C38.8056 14.9157 39.7143 14.703 40.7196 14.703C42.015 14.703 43.175 15.022 44.1996 15.66C45.2243 16.298 46.0266 17.168 46.6066 18.27C47.206 19.372 47.5056 20.619 47.5056 22.011C47.5056 23.3837 47.206 24.621 46.6066 25.723C46.0266 26.825 45.2243 27.695 44.1996 28.333C43.175 28.971 42.015 29.29 40.7196 29.29ZM40.0526 25.781C40.7486 25.781 41.3673 25.6263 41.9086 25.317C42.45 24.9883 42.8656 24.5437 43.1556 23.983C43.465 23.403 43.6196 22.736 43.6196 21.982C43.6196 21.2473 43.465 20.5997 43.1556 20.039C42.8656 19.459 42.45 19.0143 41.9086 18.705C41.3673 18.3763 40.7486 18.212 40.0526 18.212C39.376 18.212 38.767 18.3763 38.2256 18.705C37.6843 19.0143 37.259 19.459 36.9496 20.039C36.6596 20.5997 36.5146 21.2473 36.5146 21.982C36.5146 22.736 36.6596 23.403 36.9496 23.983C37.259 24.5437 37.6746 24.9883 38.1966 25.317C38.738 25.6263 39.3566 25.781 40.0526 25.781ZM32.9476 34.858V14.993H36.7466V18.676L36.1086 22.069L36.7176 25.462V34.858H32.9476ZM51.7156 29V9.164H55.5146V29H51.7156ZM48.4386 18.328V14.993H58.7916V18.328H48.4386ZM67.2873 29.29C65.8179 29.29 64.5129 28.9807 63.3723 28.362C62.2316 27.724 61.3229 26.854 60.6463 25.752C59.9889 24.65 59.6603 23.3933 59.6603 21.982C59.6603 20.59 59.9793 19.3527 60.6173 18.27C61.2746 17.168 62.1639 16.298 63.2853 15.66C64.4066 15.0027 65.6536 14.674 67.0263 14.674C68.3796 14.674 69.5686 14.9833 70.5933 15.602C71.6373 16.2013 72.4493 17.0327 73.0293 18.096C73.6286 19.14 73.9283 20.329 73.9283 21.663C73.9283 21.9143 73.9089 22.1753 73.8703 22.446C73.8509 22.6973 73.8026 22.9873 73.7253 23.316L61.9513 23.345V20.503L71.9563 20.474L70.4193 21.663C70.3806 20.8317 70.2259 20.1357 69.9553 19.575C69.7039 19.0143 69.3269 18.589 68.8243 18.299C68.3409 17.9897 67.7416 17.835 67.0263 17.835C66.2723 17.835 65.6149 18.009 65.0543 18.357C64.4936 18.6857 64.0586 19.1593 63.7493 19.778C63.4593 20.3773 63.3143 21.0927 63.3143 21.924C63.3143 22.7747 63.4689 23.519 63.7783 24.157C64.1069 24.7757 64.5709 25.259 65.1703 25.607C65.7696 25.9357 66.4656 26.1 67.2583 26.1C67.9736 26.1 68.6213 25.984 69.2013 25.752C69.7813 25.5007 70.2839 25.1333 70.7093 24.65L72.9423 26.883C72.2656 27.6757 71.4343 28.275 70.4483 28.681C69.4816 29.087 68.4279 29.29 67.2873 29.29ZM82.8897 29.29C81.459 29.29 80.1734 28.971 79.0327 28.333C77.892 27.695 76.993 26.825 76.3357 25.723C75.6784 24.621 75.3497 23.3837 75.3497 22.011C75.3497 20.619 75.6784 19.372 76.3357 18.27C76.993 17.168 77.892 16.298 79.0327 15.66C80.1927 15.0027 81.4784 14.674 82.8897 14.674C83.9917 14.674 85.0067 14.877 85.9347 15.283C86.8627 15.689 87.665 16.269 88.3417 17.023L85.9057 19.488C85.5384 19.082 85.0937 18.7727 84.5717 18.56C84.069 18.3473 83.5084 18.241 82.8897 18.241C82.1937 18.241 81.5654 18.4053 81.0047 18.734C80.4634 19.0433 80.0284 19.4783 79.6997 20.039C79.3904 20.5803 79.2357 21.228 79.2357 21.982C79.2357 22.7167 79.3904 23.374 79.6997 23.954C80.0284 24.5147 80.4634 24.9593 81.0047 25.288C81.5654 25.5973 82.1937 25.752 82.8897 25.752C83.5277 25.752 84.098 25.6457 84.6007 25.433C85.1227 25.201 85.5674 24.8723 85.9347 24.447L88.3997 26.912C87.6844 27.6853 86.8627 28.275 85.9347 28.681C85.0067 29.087 83.9917 29.29 82.8897 29.29ZM99.9761 29V20.967C99.9761 20.1357 99.7151 19.459 99.1931 18.937C98.6711 18.415 97.9945 18.154 97.1631 18.154C96.6218 18.154 96.1385 18.27 95.7131 18.502C95.2878 18.734 94.9495 19.0627 94.6981 19.488C94.4661 19.9133 94.3501 20.4063 94.3501 20.967L92.8711 20.213C92.8711 19.111 93.1031 18.154 93.5671 17.342C94.0311 16.5107 94.6691 15.863 95.4811 15.399C96.3125 14.935 97.2598 14.703 98.3231 14.703C99.3865 14.703 100.324 14.935 101.136 15.399C101.967 15.863 102.615 16.501 103.079 17.313C103.543 18.125 103.775 19.0627 103.775 20.126V29H99.9761ZM90.5511 29V8.033H94.3501V29H90.5511ZM109.445 29.29C108.749 29.29 108.179 29.058 107.734 28.594C107.29 28.13 107.067 27.5597 107.067 26.883C107.067 26.2063 107.29 25.636 107.734 25.172C108.179 24.708 108.749 24.476 109.445 24.476C110.122 24.476 110.683 24.708 111.127 25.172C111.572 25.636 111.794 26.2063 111.794 26.883C111.794 27.5597 111.572 28.13 111.127 28.594C110.683 29.058 110.122 29.29 109.445 29.29Z" fill="#171938"></path>
</svg>