<svg xmlns:xlink="http://www.w3.org/1999/xlink" xmlns="http://www.w3.org/2000/svg" width="100" height="19" viewBox="0 0 100 19" fill="none">
<path d="M9.15493 0L11.2103 6.3259L17.8618 6.3259L12.4807 10.2355L14.5361 16.5614L9.15493 12.6518L3.7738 16.5614L5.82921 10.2355L0.448074 6.3259L7.09952 6.3259L9.15493 0Z" fill="#FFD74B"></path>
<path d="M29.5773 0L31.6327 6.3259L38.2841 6.3259L32.903 10.2355L34.9584 16.5614L29.5773 12.6518L24.1962 16.5614L26.2516 10.2355L20.8704 6.3259L27.5219 6.3259L29.5773 0Z" fill="#FFD74B"></path>
<path d="M50.0001 0L52.0556 6.3259L58.707 6.3259L53.3259 10.2355L55.3813 16.5614L50.0001 12.6518L44.619 16.5614L46.6744 10.2355L41.2933 6.3259L47.9447 6.3259L50.0001 0Z" fill="#FFD74B"></path>
<path d="M70.4225 0L72.4779 6.3259L79.1294 6.3259L73.7482 10.2355L75.8036 16.5614L70.4225 12.6518L65.0414 16.5614L67.0968 10.2355L61.7157 6.3259L68.3671 6.3259L70.4225 0Z" fill="#FFD74B"></path>
<path d="M90.8449 0L92.9003 6.3259L99.5517 6.3259L94.1706 10.2355L96.226 16.5614L90.8449 12.6518L85.4637 16.5614L87.5191 10.2355L82.138 6.3259L88.7895 6.3259L90.8449 0Z" fill="#FFD74B"></path>
</svg>